<svg width="24" height="24" viewBox="0 0 24 24" fill="none" xmlns="http://www.w3.org/2000/svg">
<path d="M8.57 15.27L15.11 8.73M8.98 10.37C9.30622 10.37 9.61907 10.2404 9.84974 10.0097C10.0804 9.77908 10.21 9.46622 10.21 9.14C10.21 8.81379 10.0804 8.50093 9.84974 8.27026C9.61907 8.03959 9.30622 7.91 8.98 7.91C8.65378 7.91 8.34093 8.03959 8.11026 8.27026C7.87959 8.50093 7.75 8.81379 7.75 9.14C7.75 9.46622 7.87959 9.77908 8.11026 10.0097C8.34093 10.2404 8.65378 10.37 8.98 10.37ZM15.52 16.09C15.8462 16.09 16.1591 15.9604 16.3897 15.7297C16.6204 15.4991 16.75 15.1862 16.75 14.86C16.75 14.5338 16.6204 14.2209 16.3897 13.9903C16.1591 13.7596 15.8462 13.63 15.52 13.63C15.1938 13.63 14.8809 13.7596 14.6503 13.9903C14.4196 14.2209 14.29 14.5338 14.29 14.86C14.29 15.1862 14.4196 15.4991 14.6503 15.7297C14.8809 15.9604 15.1938 16.09 15.52 16.09Z" stroke="black" stroke-width="1.5" stroke-linecap="round" stroke-linejoin="round"/>
<path d="M12 22C17.523 22 22 17.523 22 12C22 6.477 17.523 2 12 2C6.477 2 2 6.477 2 12C2 17.523 6.477 22 12 22Z" stroke="black" stroke-width="1.5" stroke-linecap="round" stroke-linejoin="round"/>
</svg>
